PathFileType	4	(X/Y/Z)	Kaydara	
DataRate	CameraRate	NumFrames	NumMarkers	Units	OrigDataRate	OrigDataStartFrame	OrigNumFrames	
60.00	60.00	4	74	mm	60.00	1606	181	
Frame#	Time	Z_lasi			Z_rasi			Z_rpsi			Z_lpsi			Z_fneck			Z_bneck			Z_fhead			Z_rhead			Z_lhead			Z_rshld			Z_relbtop			Z_relbext			Z_relblow			Z_rwrext			Z_rwrtop			Z_rwrlow			Z_lshld			Z_lelbext			Z_lelblow			Z_lelbtop			Z_lwrext			Z_lwrtop			Z_lwrlow			Z_rtopleg			Z_ltopleg			Z_rkneefr			Z_rkneebk			Z_rkneeis			Z_lkneefr			Z_lknssbk			Z_lkneeis			Z_rankfr			Z_rankis			Z_rankbk			Z_lankfr			Z_lankbk			Z_lankis			A_lasi			A_rasi			A_rpsi			A_lpsi			A_fneck			A_bneck			A_fhead			A_rhead			A_lhead			A_rshld			A_relbtop			A_relbext			A_relblow			A_rwrext			A_rwrtop			A_rwrlow			A_lshld			A_lelbext			A_lelblow			A_lelbtop			A_lwrext			A_lwrtop			A_lwrlow			A_rtopleg			A_ltopleg			A_rkneefr			A_rkneebk			A_rkneeis			A_lkneefr			A_lknssbk			A_lkneeis			A_rankfr			A_rankis			A_rankbk			A_lankfr			A_lankbk			A_lankis			
		X1	Y1	Z1	X2	Y2	Z2	X3	Y3	Z3	X4	Y4	Z4	X5	Y5	Z5	X6	Y6	Z6	X7	Y7	Z7	X8	Y8	Z8	X9	Y9	Z9	X10	Y10	Z10	X11	Y11	Z11	X12	Y12	Z12	X13	Y13	Z13	X14	Y14	Z14	X15	Y15	Z15	X16	Y16	Z16	X17	Y17	Z17	X18	Y18	Z18	X19	Y19	Z19	X20	Y20	Z20	X21	Y21	Z21	X22	Y22	Z22	X23	Y23	Z23	X24	Y24	Z24	X25	Y25	Z25	X26	Y26	Z26	X27	Y27	Z27	X28	Y28	Z28	X29	Y29	Z29	X30	Y30	Z30	X31	Y31	Z31	X32	Y32	Z32	X33	Y33	Z33	X34	Y34	Z34	X35	Y35	Z35	X36	Y36	Z36	X37	Y37	Z37	X38	Y38	Z38	X39	Y39	Z39	X40	Y40	Z40	X41	Y41	Z41	X42	Y42	Z42	X43	Y43	Z43	X44	Y44	Z44	X45	Y45	Z45	X46	Y46	Z46	X47	Y47	Z47	X48	Y48	Z48	X49	Y49	Z49	X50	Y50	Z50	X51	Y51	Z51	X52	Y52	Z52	X53	Y53	Z53	X54	Y54	Z54	X55	Y55	Z55	X56	Y56	Z56	X57	Y57	Z57	X58	Y58	Z58	X59	Y59	Z59	X60	Y60	Z60	X61	Y61	Z61	X62	Y62	Z62	X63	Y63	Z63	X64	Y64	Z64	X65	Y65	Z65	X66	Y66	Z66	X67	Y67	Z67	X68	Y68	Z68	X69	Y69	Z69	X70	Y70	Z70	X71	Y71	Z71	X72	Y72	Z72	X73	Y73	Z73	X74	Y74	Z74	

136	26.750	-240.17548	1065.55359	529.67583	-306.77599	1065.18082	332.59529	-141.18322	1106.39587	241.10559	-57.32823	1096.78429	473.29834	-261.45567	1443.04947	401.87466	-150.02073	1498.78784	380.90542	-316.13266	1667.47009	395.54707	-199.52692	1626.90918	281.02377	-150.11173	1633.12363	421.80332	-229.55044	1414.25430	183.28398	-187.75908	1091.30539	116.97911	-158.57103	1077.97905	169.90953	-251.97166	1102.44102	158.82733	-280.15551	862.93526	143.66626	-312.29803	878.17802	172.89278	-285.83855	875.54153	208.81561	-143.46233	1445.61249	570.35946	-97.14973	1129.46198	592.51900	-155.81907	1153.53050	656.35368	-86.81805	1152.59125	659.60991	-231.70067	902.05215	656.98318	-218.27593	895.69855	702.02728	-172.85126	888.89870	691.29410	-179.75430	912.44522	202.89818	-142.32940	887.84286	566.99703	-205.87149	412.94292	321.01288	-139.64916	438.15239	265.46871	-140.20322	437.43458	390.60345	-245.21349	442.73914	587.25456	-143.63669	473.07117	562.89051	-243.03568	443.70857	491.86398	-156.90412	170.94843	334.38442	-133.48990	176.82159	397.28104	-79.84558	165.93472	329.41395	-125.27588	172.44453	548.42678	-79.15243	191.71238	485.07828	-158.23317	182.54929	483.49304	-964.12842	1032.03323	486.95206	-955.49667	1039.21593	646.96152	-1118.11630	1041.42845	660.53680	-1088.30826	1045.03113	478.44864	-1022.14752	1384.79996	579.63066	-1160.83443	1410.74265	570.04520	-985.72151	1597.60620	574.03164	-1123.67317	1560.73959	670.08949	-1134.81186	1552.36115	506.90292	-1088.65189	1382.47437	753.82332	-1115.99777	1095.79437	816.36284	-1142.11853	1077.85439	759.91829	-1071.34178	1081.11511	780.96382	-1085.04265	853.52638	875.74623	-1097.83203	874.46632	913.85750	-1060.82825	889.48776	917.44987	-1046.21490	1372.67197	401.06247	-1109.54086	1059.83063	386.33835	-1048.74290	1078.42216	349.55429	-1102.15935	1074.50119	339.42387	-983.57330	884.86282	264.39270	-1022.54646	865.85854	271.41851	-1026.75316	886.92581	230.49002	-1070.06248	876.95496	742.58904	-1021.51733	890.72250	404.42284	-1028.25706	451.49418	654.77646	-1138.46252	487.81948	693.51402	-1111.87737	486.44543	576.16856	-1007.96753	463.07583	515.62775	-1092.66907	481.49574	419.30717	-1116.18500	479.58031	543.56056	-1102.72629	167.02873	674.68765	-1131.59889	163.48358	606.94904	-1183.77151	154.96215	673.35999	-1066.20636	167.05791	458.64685	-1127.27806	169.75063	423.19855	-1125.69527	173.60893	512.79984 
137	26.767	-239.28524	1065.57762	530.89111	-306.52658	1065.13870	333.95470	-141.35019	1106.57242	241.72224	-56.64075	1097.04269	473.65650	-261.49408	1442.89444	403.03642	-150.46562	1499.05060	381.78917	-317.36225	1666.93207	396.90796	-201.20399	1626.94656	281.89503	-151.04448	1633.59695	422.51282	-230.41899	1414.29840	184.41076	-188.65318	1091.20361	118.53580	-159.43026	1077.98523	171.45605	-252.97066	1102.55089	160.37817	-281.23104	863.00507	145.46506	-313.37200	878.30170	174.87606	-286.75156	875.53925	210.83958	-143.34529	1445.74615	571.28624	-95.73881	1129.75731	592.66766	-154.46118	1153.26096	656.68282	-85.43036	1152.71385	659.87267	-228.20415	901.01311	656.71654	-214.76391	894.71436	701.69907	-169.45518	888.34259	691.28860	-179.71424	912.57408	203.65778	-141.52267	888.44498	568.11890	-205.23024	413.04977	321.50307	-139.18706	438.26118	265.73101	-139.30908	437.37808	390.73540	-247.06091	444.03217	590.90576	-145.49563	474.43596	566.75591	-244.54298	444.88117	495.42202	-156.78673	171.02892	334.54918	-133.23660	176.81784	397.40688	-79.77210	165.84694	329.43153	-125.25686	174.19456	551.44203	-79.09840	193.84579	488.42140	-158.21973	184.35755	486.72428	-964.03328	1032.00577	486.87817	-954.99619	1039.35608	646.83998	-1117.78030	1041.44432	660.55733	-1088.17749	1045.04684	478.46737	-1022.07687	1384.78622	579.79744	-1160.78201	1411.01318	569.64703	-985.49309	1597.58041	575.51441	-1124.99741	1560.78400	669.14558	-1133.27148	1552.70477	505.86216	-1088.54736	1382.13593	753.92792	-1115.32860	1095.09018	815.37140	-1141.98410	1077.53296	759.15855	-1071.10092	1080.50369	779.37576	-1086.00365	852.26974	873.84109	-1095.86975	873.83881	912.59430	-1058.16086	887.84309	913.90152	-1046.41174	1372.50458	400.86086	-1110.13710	1059.78065	386.99776	-1048.90114	1077.76550	350.86792	-1102.12791	1074.15039	340.08591	-984.07707	882.48077	268.84350	-1023.81332	864.42078	274.10543	-1025.52383	885.84465	233.18800	-1069.86427	876.95869	742.62436	-1021.61613	890.73502	404.37706	-1028.22205	451.47278	654.75311	-1138.37868	487.83371	693.53439	-1111.89590	486.43429	576.19072	-1008.07816	463.05969	515.61462	-1092.81921	481.50730	419.28616	-1116.26389	479.58336	543.54748	-1102.55203	167.10690	674.72366	-1131.59958	163.48837	606.96461	-1183.74023	154.99868	673.40347	-1066.24329	167.08200	458.62213	-1127.34024	169.75582	423.20492	-1125.71800	173.61298	512.79686 
138	26.783	-238.49281	1065.77866	532.03377	-306.28670	1065.11818	335.29179	-141.54967	1106.76010	242.43576	-56.05615	1097.37389	474.09889	-261.92194	1442.89978	404.35196	-150.89693	1499.33594	382.70714	-318.60901	1666.46866	398.30406	-202.54948	1627.08557	283.15899	-152.03196	1634.02939	423.35518	-231.16522	1414.43619	185.54731	-189.49459	1091.28654	120.00186	-160.21318	1078.09578	172.81992	-253.73587	1102.77504	161.67206	-282.37537	863.21953	147.43158	-314.42076	878.65044	176.61644	-289.24770	876.56631	212.19967	-143.22879	1445.81451	572.29370	-94.35836	1129.93301	592.83554	-153.10412	1153.02963	656.95160	-83.92645	1152.88155	659.92409	-224.64472	899.92546	656.57906	-211.37262	893.72223	701.62186	-165.75459	887.94334	691.23344	-179.68882	912.71973	204.46302	-140.71965	889.37881	569.21150	-204.67352	413.20091	321.93222	-138.76319	438.33862	266.08957	-138.65086	437.40456	391.24317	-248.79436	445.34538	594.83345	-147.00271	476.15170	570.32803	-246.03979	445.86605	498.80039	-156.61422	171.12360	334.68346	-133.04298	176.80309	397.56363	-79.66123	165.79590	329.51847	-125.23993	175.84974	554.83624	-78.84867	196.13337	492.12147	-157.91055	185.97876	489.91413	-963.87314	1031.99104	486.77837	-954.72923	1039.31709	646.68358	-1117.36366	1041.48148	660.61180	-1088.07579	1045.04929	478.47492	-1021.96182	1384.84650	579.96113	-1160.76195	1411.37146	569.12411	-985.09605	1597.44568	577.32639	-1126.60545	1560.94345	668.05511	-1131.59714	1553.10379	504.57127	-1088.53088	1381.61545	754.09309	-1114.60945	1094.32747	814.27261	-1141.87904	1077.19666	758.17307	-1070.43503	1079.84436	777.88834	-1087.49382	851.06796	871.99982	-1093.24013	873.21404	911.11023	-1055.08461	885.85747	909.66667	-1046.47491	1372.37457	400.70396	-1110.81055	1059.90784	387.52728	-1048.92288	1077.22145	352.35832	-1101.99539	1073.85666	340.68768	-985.69839	879.56268	274.36640	-1025.66353	863.03856	276.89131	-1023.83194	884.73663	236.18601	-1069.64508	876.97968	742.67509	-1021.76857	890.76393	404.37843	-1028.18825	451.48067	654.73297	-1138.31230	487.86388	693.56300	-1111.89590	486.44371	576.21666	-1008.08846	463.10661	515.46482	-1092.93755	481.53545	419.24458	-1116.30981	479.58218	543.53024	-1102.50145	167.11941	674.73625	-1131.55968	163.56428	607.00226	-1183.67661	155.01077	673.44269	-1066.28761	167.10806	458.58627	-1127.34871	169.77194	423.18737	-1125.74142	173.62720	512.79045 
139	26.800	-237.85376	1065.99213	533.15289	-306.05963	1065.11024	336.62476	-141.79006	1106.98097	243.32119	-55.47152	1097.73483	474.62414	-262.24018	1442.84988	405.70766	-151.39079	1499.64020	383.76976	-319.92260	1665.99380	399.83234	-204.02788	1627.19025	284.31459	-153.21767	1634.41544	424.44023	-232.08063	1414.73175	186.84341	-190.09853	1091.56181	121.11562	-160.99535	1078.34129	174.09689	-254.36296	1103.05260	162.87979	-283.29805	863.52074	149.22681	-315.29491	879.09470	178.43880	-288.96925	876.60439	214.20074	-143.05958	1445.86243	573.38264	-93.10525	1130.10300	592.99030	-151.62129	1152.74315	657.26387	-82.57451	1152.94708	660.11093	-221.16837	898.85124	656.47095	-207.85536	892.83669	701.68159	-162.23272	887.36725	691.31935	-179.34023	912.71584	205.24830	-140.22304	890.21172	570.59280	-204.29083	413.27225	322.54154	-138.39397	438.43754	266.54076	-138.30944	437.38998	391.58955	-250.42791	446.91555	599.00162	-149.03607	477.81876	574.80164	-247.74197	447.05250	502.50881	-156.47562	171.16028	334.87221	-132.81817	176.74082	397.76798	-79.55343	165.74501	329.68250	-124.99541	177.79221	558.70720	-78.48971	198.56388	496.31550	-157.67450	187.83710	493.74130	-963.76907	1031.96526	486.71490	-954.46648	1039.23775	646.58669	-1117.07558	1041.51878	660.69458	-1087.98149	1045.06920	478.50880	-1021.85287	1384.90982	580.17269	-1160.71823	1411.68213	568.45734	-984.86664	1597.48276	579.28192	-1128.28934	1561.09116	666.77177	-1129.81651	1553.52310	503.18428	-1088.49670	1381.07483	754.25072	-1113.83507	1093.41438	813.09326	-1142.02606	1076.83479	757.29271	-1070.72334	1079.03259	775.64682	-1089.14421	849.86397	870.25757	-1090.14870	872.55112	909.64600	-1051.60149	883.58673	904.57314	-1046.55197	1372.21497	400.56900	-1111.54533	1060.03586	388.07209	-1048.99010	1076.51756	354.10110	-1101.81610	1073.57338	341.29761	-987.39235	876.28677	280.36934	-1028.26378	861.51825	279.53123	-1021.72844	883.67241	239.42337	-1069.40384	876.95839	742.69279	-1021.94412	890.76591	404.37836	-1028.08266	451.47228	654.65103	-1138.19862	487.87262	693.58604	-1111.88217	486.47087	576.22810	-1008.32291	463.06164	515.57724	-1093.04573	481.56033	419.21936	-1116.38077	479.60575	543.51662	-1102.43668	167.14331	674.71786	-1131.54091	163.58923	607.05006	-1183.62526	155.05142	673.49678	-1066.31966	167.13432	458.53458	-1127.39189	169.78287	423.16296	-1125.74249	173.64439	512.77649 
